solid OpenSCAD_Model
  facet normal 0 0 -1
    outer loop
      vertex -6 0 0
      vertex -5.79555 1.55291 0
      vertex -5.79555 -1.55291 0
    endloop
  endfacet
  facet normal 0 0 -1
    outer loop
      vertex -5.79555 -1.55291 0
      vertex -5.79555 1.55291 0
      vertex -5.19615 3 0
    endloop
  endfacet
  facet normal 0 0 -1
    outer loop
      vertex -5.79555 -1.55291 0
      vertex -5.19615 3 0
      vertex -4.24264 4.24264 0
    endloop
  endfacet
  facet normal 0 0 -1
    outer loop
      vertex -5.79555 -1.55291 0
      vertex -4.24264 4.24264 0
      vertex -3 5.19615 0
    endloop
  endfacet
  facet normal 0 0 -1
    outer loop
      vertex -5.79555 -1.55291 0
      vertex -3 5.19615 0
      vertex -1.55291 5.79555 0
    endloop
  endfacet
  facet normal 0 0 -1
    outer loop
      vertex -2 3.4641 0
      vertex -1.55291 5.79555 0
      vertex 0 6 0
    endloop
  endfacet
  facet normal 0 0 -1
    outer loop
      vertex -1.03528 3.8637 0
      vertex 0 6 0
      vertex 1.55291 5.79555 0
    endloop
  endfacet
  facet normal 0 0 -1
    outer loop
      vertex 1.03528 3.8637 0
      vertex 1.55291 5.79555 0
      vertex 3 5.19615 0
    endloop
  endfacet
  facet normal 0 0 -1
    outer loop
      vertex 2 3.4641 0
      vertex 3 5.19615 0
      vertex 4.24264 4.24264 0
    endloop
  endfacet
  facet normal 0 0 -1
    outer loop
      vertex 2.82843 2.82843 0
      vertex 4.24264 4.24264 0
      vertex 5.19615 3 0
    endloop
  endfacet
  facet normal 0 0 -1
    outer loop
      vertex 3.8637 1.03528 0
      vertex 5.19615 3 0
      vertex 5.79555 1.55291 0
    endloop
  endfacet
  facet normal 0 0 -1
    outer loop
      vertex 4 0 0
      vertex 5.79555 1.55291 0
      vertex 6 0 0
    endloop
  endfacet
  facet normal 0 0 -1
    outer loop
      vertex 3.8637 -1.03528 0
      vertex 6 0 0
      vertex 5.79555 -1.55291 0
    endloop
  endfacet
  facet normal 0 0 -1
    outer loop
      vertex 3.4641 -2 0
      vertex 5.79555 -1.55291 0
      vertex 5.19615 -3 0
    endloop
  endfacet
  facet normal 0 0 -1
    outer loop
      vertex 2 -3.4641 0
      vertex 5.19615 -3 0
      vertex 4.24264 -4.24264 0
    endloop
  endfacet
  facet normal 0 0 -1
    outer loop
      vertex 1.03528 -3.8637 0
      vertex 4.24264 -4.24264 0
      vertex 3 -5.19615 0
    endloop
  endfacet
  facet normal 0 0 -1
    outer loop
      vertex -1.03528 -3.8637 0
      vertex 3 -5.19615 0
      vertex 1.55291 -5.79555 0
    endloop
  endfacet
  facet normal 0 0 -1
    outer loop
      vertex -5.79555 -1.55291 0
      vertex 1.55291 -5.79555 0
      vertex 0 -6 0
    endloop
  endfacet
  facet normal 0 0 -1
    outer loop
      vertex -5.79555 -1.55291 0
      vertex 0 -6 0
      vertex -1.55291 -5.79555 0
    endloop
  endfacet
  facet normal 0 0 -1
    outer loop
      vertex -5.79555 -1.55291 0
      vertex -1.55291 -5.79555 0
      vertex -3 -5.19615 0
    endloop
  endfacet
  facet normal 0 0 -1
    outer loop
      vertex -5.79555 -1.55291 0
      vertex -3 -5.19615 0
      vertex -4.24264 -4.24264 0
    endloop
  endfacet
  facet normal 0 0 -1
    outer loop
      vertex -5.79555 -1.55291 0
      vertex -4.24264 -4.24264 0
      vertex -5.19615 -3 0
    endloop
  endfacet
  facet normal 0 0 -1
    outer loop
      vertex -3.8637 -1.03528 0
      vertex -5.79555 -1.55291 0
      vertex -4 0 0
    endloop
  endfacet
  facet normal 0 0 -1
    outer loop
      vertex -3.4641 -2 0
      vertex -5.79555 -1.55291 0
      vertex -3.8637 -1.03528 0
    endloop
  endfacet
  facet normal 0 0 -1
    outer loop
      vertex -2.82843 -2.82843 0
      vertex -5.79555 -1.55291 0
      vertex -3.4641 -2 0
    endloop
  endfacet
  facet normal 0 0 -1
    outer loop
      vertex -1.03528 -3.8637 0
      vertex 1.55291 -5.79555 0
      vertex -2 -3.4641 0
    endloop
  endfacet
  facet normal 0 0 -1
    outer loop
      vertex -5.79555 -1.55291 0
      vertex -2.82843 -2.82843 0
      vertex -2 -3.4641 0
    endloop
  endfacet
  facet normal 0 0 -1
    outer loop
      vertex -5.79555 -1.55291 0
      vertex -2 -3.4641 0
      vertex 1.55291 -5.79555 0
    endloop
  endfacet
  facet normal 0 0 -1
    outer loop
      vertex 0 -4 0
      vertex 3 -5.19615 0
      vertex -1.03528 -3.8637 0
    endloop
  endfacet
  facet normal 0 0 -1
    outer loop
      vertex 1.03528 -3.8637 0
      vertex 3 -5.19615 0
      vertex 0 -4 0
    endloop
  endfacet
  facet normal 0 0 -1
    outer loop
      vertex 2.82843 -2.82843 0
      vertex 5.19615 -3 0
      vertex 2 -3.4641 0
    endloop
  endfacet
  facet normal 0 0 -1
    outer loop
      vertex 3.4641 -2 0
      vertex 5.19615 -3 0
      vertex 2.82843 -2.82843 0
    endloop
  endfacet
  facet normal 0 0 -1
    outer loop
      vertex 2 -3.4641 0
      vertex 4.24264 -4.24264 0
      vertex 1.03528 -3.8637 0
    endloop
  endfacet
  facet normal 0 0 -1
    outer loop
      vertex 3.8637 1.03528 0
      vertex 5.79555 1.55291 0
      vertex 4 0 0
    endloop
  endfacet
  facet normal 0 0 -1
    outer loop
      vertex 3.4641 2 0
      vertex 5.19615 3 0
      vertex 3.8637 1.03528 0
    endloop
  endfacet
  facet normal 0 0 -1
    outer loop
      vertex 4 0 0
      vertex 6 0 0
      vertex 3.8637 -1.03528 0
    endloop
  endfacet
  facet normal 0 0 -1
    outer loop
      vertex 3.8637 -1.03528 0
      vertex 5.79555 -1.55291 0
      vertex 3.4641 -2 0
    endloop
  endfacet
  facet normal 0 0 -1
    outer loop
      vertex 0 4 0
      vertex 1.55291 5.79555 0
      vertex 1.03528 3.8637 0
    endloop
  endfacet
  facet normal 0 0 -1
    outer loop
      vertex -1.03528 3.8637 0
      vertex 1.55291 5.79555 0
      vertex 0 4 0
    endloop
  endfacet
  facet normal 0 0 -1
    outer loop
      vertex 1.03528 3.8637 0
      vertex 3 5.19615 0
      vertex 2 3.4641 0
    endloop
  endfacet
  facet normal 0 0 -1
    outer loop
      vertex -2.82843 2.82843 0
      vertex -1.55291 5.79555 0
      vertex -2 3.4641 0
    endloop
  endfacet
  facet normal 0 0 -1
    outer loop
      vertex -3.4641 2 0
      vertex -1.55291 5.79555 0
      vertex -2.82843 2.82843 0
    endloop
  endfacet
  facet normal 0 0 -1
    outer loop
      vertex -5.79555 -1.55291 0
      vertex -1.55291 5.79555 0
      vertex -3.4641 2 0
    endloop
  endfacet
  facet normal 0 0 -1
    outer loop
      vertex 2 3.4641 0
      vertex 4.24264 4.24264 0
      vertex 2.82843 2.82843 0
    endloop
  endfacet
  facet normal 0 0 -1
    outer loop
      vertex -4 0 0
      vertex -5.79555 -1.55291 0
      vertex -3.8637 1.03528 0
    endloop
  endfacet
  facet normal 0 0 -1
    outer loop
      vertex -3.8637 1.03528 0
      vertex -5.79555 -1.55291 0
      vertex -3.4641 2 0
    endloop
  endfacet
  facet normal 0 0 -1
    outer loop
      vertex -2 3.4641 0
      vertex 0 6 0
      vertex -1.03528 3.8637 0
    endloop
  endfacet
  facet normal 0 0 -1
    outer loop
      vertex 2.82843 2.82843 0
      vertex 5.19615 3 0
      vertex 3.4641 2 0
    endloop
  endfacet
  facet normal -0.991445 0.130526 0
    outer loop
      vertex -6 0 0
      vertex -6 0 12
      vertex -5.79555 1.55291 0
    endloop
  endfacet
  facet normal -0.991445 0.130526 0
    outer loop
      vertex -5.79555 1.55291 0
      vertex -6 0 12
      vertex -5.79555 1.55291 12
    endloop
  endfacet
  facet normal -0.991445 -0.130526 0
    outer loop
      vertex -6 0 0
      vertex -5.79555 -1.55291 0
      vertex -6 0 12
    endloop
  endfacet
  facet normal -0.991445 -0.130526 0
    outer loop
      vertex -6 0 12
      vertex -5.79555 -1.55291 0
      vertex -5.79555 -1.55291 12
    endloop
  endfacet
  facet normal -0.923879 -0.382684 0
    outer loop
      vertex -5.79555 -1.55291 0
      vertex -5.19615 -3 0
      vertex -5.79555 -1.55291 12
    endloop
  endfacet
  facet normal -0.923879 -0.382684 0
    outer loop
      vertex -5.79555 -1.55291 12
      vertex -5.19615 -3 0
      vertex -5.19615 -3 12
    endloop
  endfacet
  facet normal -0.793354 -0.608761 0
    outer loop
      vertex -5.19615 -3 0
      vertex -4.24264 -4.24264 0
      vertex -5.19615 -3 12
    endloop
  endfacet
  facet normal -0.793354 -0.608761 0
    outer loop
      vertex -5.19615 -3 12
      vertex -4.24264 -4.24264 0
      vertex -4.24264 -4.24264 12
    endloop
  endfacet
  facet normal -0.608761 -0.793354 0
    outer loop
      vertex -4.24264 -4.24264 12
      vertex -4.24264 -4.24264 0
      vertex -3 -5.19615 0
    endloop
  endfacet
  facet normal -0.608761 -0.793354 0
    outer loop
      vertex -3 -5.19615 12
      vertex -4.24264 -4.24264 12
      vertex -3 -5.19615 0
    endloop
  endfacet
  facet normal -0.382684 -0.923879 0
    outer loop
      vertex -3 -5.19615 12
      vertex -3 -5.19615 0
      vertex -1.55291 -5.79555 0
    endloop
  endfacet
  facet normal -0.382684 -0.923879 0
    outer loop
      vertex -1.55291 -5.79555 12
      vertex -3 -5.19615 12
      vertex -1.55291 -5.79555 0
    endloop
  endfacet
  facet normal -0.130526 -0.991445 0
    outer loop
      vertex -1.55291 -5.79555 12
      vertex -1.55291 -5.79555 0
      vertex 0 -6 0
    endloop
  endfacet
  facet normal -0.130526 -0.991445 0
    outer loop
      vertex 0 -6 12
      vertex -1.55291 -5.79555 12
      vertex 0 -6 0
    endloop
  endfacet
  facet normal 0.130526 -0.991445 0
    outer loop
      vertex 0 -6 12
      vertex 0 -6 0
      vertex 1.55291 -5.79555 0
    endloop
  endfacet
  facet normal 0.130526 -0.991445 0
    outer loop
      vertex 1.55291 -5.79555 12
      vertex 0 -6 12
      vertex 1.55291 -5.79555 0
    endloop
  endfacet
  facet normal 0.382684 -0.923879 0
    outer loop
      vertex 1.55291 -5.79555 12
      vertex 1.55291 -5.79555 0
      vertex 3 -5.19615 0
    endloop
  endfacet
  facet normal 0.382684 -0.923879 0
    outer loop
      vertex 3 -5.19615 12
      vertex 1.55291 -5.79555 12
      vertex 3 -5.19615 0
    endloop
  endfacet
  facet normal 0.608761 -0.793354 0
    outer loop
      vertex 3 -5.19615 12
      vertex 3 -5.19615 0
      vertex 4.24264 -4.24264 0
    endloop
  endfacet
  facet normal 0.608761 -0.793354 0
    outer loop
      vertex 4.24264 -4.24264 12
      vertex 3 -5.19615 12
      vertex 4.24264 -4.24264 0
    endloop
  endfacet
  facet normal 0.793354 -0.608761 0
    outer loop
      vertex 4.24264 -4.24264 12
      vertex 4.24264 -4.24264 0
      vertex 5.19615 -3 0
    endloop
  endfacet
  facet normal 0.793354 -0.608761 0
    outer loop
      vertex 5.19615 -3 12
      vertex 4.24264 -4.24264 12
      vertex 5.19615 -3 0
    endloop
  endfacet
  facet normal 0.923879 -0.382684 0
    outer loop
      vertex 5.19615 -3 12
      vertex 5.19615 -3 0
      vertex 5.79555 -1.55291 0
    endloop
  endfacet
  facet normal 0.923879 -0.382684 0
    outer loop
      vertex 5.79555 -1.55291 12
      vertex 5.19615 -3 12
      vertex 5.79555 -1.55291 0
    endloop
  endfacet
  facet normal 0.991445 -0.130526 0
    outer loop
      vertex 5.79555 -1.55291 12
      vertex 5.79555 -1.55291 0
      vertex 6 0 0
    endloop
  endfacet
  facet normal 0.991445 -0.130526 0
    outer loop
      vertex 6 0 12
      vertex 5.79555 -1.55291 12
      vertex 6 0 0
    endloop
  endfacet
  facet normal 0.991445 0.130526 0
    outer loop
      vertex 6 0 0
      vertex 5.79555 1.55291 0
      vertex 5.79555 1.55291 12
    endloop
  endfacet
  facet normal 0.991445 0.130526 0
    outer loop
      vertex 6 0 12
      vertex 6 0 0
      vertex 5.79555 1.55291 12
    endloop
  endfacet
  facet normal 0.923879 0.382684 0
    outer loop
      vertex 5.79555 1.55291 0
      vertex 5.19615 3 0
      vertex 5.19615 3 12
    endloop
  endfacet
  facet normal 0.923879 0.382684 0
    outer loop
      vertex 5.79555 1.55291 12
      vertex 5.79555 1.55291 0
      vertex 5.19615 3 12
    endloop
  endfacet
  facet normal 0.793354 0.608761 0
    outer loop
      vertex 5.19615 3 0
      vertex 4.24264 4.24264 0
      vertex 4.24264 4.24264 12
    endloop
  endfacet
  facet normal 0.793354 0.608761 0
    outer loop
      vertex 5.19615 3 12
      vertex 5.19615 3 0
      vertex 4.24264 4.24264 12
    endloop
  endfacet
  facet normal 0.608761 0.793354 0
    outer loop
      vertex 3 5.19615 0
      vertex 3 5.19615 12
      vertex 4.24264 4.24264 0
    endloop
  endfacet
  facet normal 0.608761 0.793354 0
    outer loop
      vertex 4.24264 4.24264 0
      vertex 3 5.19615 12
      vertex 4.24264 4.24264 12
    endloop
  endfacet
  facet normal 0.382684 0.923879 0
    outer loop
      vertex 1.55291 5.79555 0
      vertex 1.55291 5.79555 12
      vertex 3 5.19615 0
    endloop
  endfacet
  facet normal 0.382684 0.923879 0
    outer loop
      vertex 3 5.19615 0
      vertex 1.55291 5.79555 12
      vertex 3 5.19615 12
    endloop
  endfacet
  facet normal 0.130526 0.991445 0
    outer loop
      vertex 0 6 0
      vertex 0 6 12
      vertex 1.55291 5.79555 0
    endloop
  endfacet
  facet normal 0.130526 0.991445 0
    outer loop
      vertex 1.55291 5.79555 0
      vertex 0 6 12
      vertex 1.55291 5.79555 12
    endloop
  endfacet
  facet normal -0.130526 0.991445 0
    outer loop
      vertex -1.55291 5.79555 0
      vertex -1.55291 5.79555 12
      vertex 0 6 0
    endloop
  endfacet
  facet normal -0.130526 0.991445 0
    outer loop
      vertex 0 6 0
      vertex -1.55291 5.79555 12
      vertex 0 6 12
    endloop
  endfacet
  facet normal -0.382684 0.923879 0
    outer loop
      vertex -3 5.19615 0
      vertex -3 5.19615 12
      vertex -1.55291 5.79555 0
    endloop
  endfacet
  facet normal -0.382684 0.923879 0
    outer loop
      vertex -1.55291 5.79555 0
      vertex -3 5.19615 12
      vertex -1.55291 5.79555 12
    endloop
  endfacet
  facet normal -0.608761 0.793354 0
    outer loop
      vertex -4.24264 4.24264 0
      vertex -4.24264 4.24264 12
      vertex -3 5.19615 0
    endloop
  endfacet
  facet normal -0.608761 0.793354 0
    outer loop
      vertex -3 5.19615 0
      vertex -4.24264 4.24264 12
      vertex -3 5.19615 12
    endloop
  endfacet
  facet normal -0.793354 0.608761 0
    outer loop
      vertex -5.19615 3 0
      vertex -5.19615 3 12
      vertex -4.24264 4.24264 0
    endloop
  endfacet
  facet normal -0.793354 0.608761 0
    outer loop
      vertex -4.24264 4.24264 0
      vertex -5.19615 3 12
      vertex -4.24264 4.24264 12
    endloop
  endfacet
  facet normal -0.923879 0.382684 0
    outer loop
      vertex -5.79555 1.55291 0
      vertex -5.79555 1.55291 12
      vertex -5.19615 3 0
    endloop
  endfacet
  facet normal -0.923879 0.382684 0
    outer loop
      vertex -5.19615 3 0
      vertex -5.79555 1.55291 12
      vertex -5.19615 3 12
    endloop
  endfacet
  facet normal 0.991445 0.130527 0
    outer loop
      vertex -4 0 12
      vertex -3.8637 -1.03528 12
      vertex -3.8637 -1.03528 0
    endloop
  endfacet
  facet normal 0.991445 0.130527 0
    outer loop
      vertex -4 0 0
      vertex -4 0 12
      vertex -3.8637 -1.03528 0
    endloop
  endfacet
  facet normal 0.991445 -0.130527 0
    outer loop
      vertex -3.8637 1.03528 0
      vertex -3.8637 1.03528 12
      vertex -4 0 12
    endloop
  endfacet
  facet normal 0.991445 -0.130527 0
    outer loop
      vertex -4 0 0
      vertex -3.8637 1.03528 0
      vertex -4 0 12
    endloop
  endfacet
  facet normal 0.92388 -0.382683 0
    outer loop
      vertex -3.4641 2 0
      vertex -3.4641 2 12
      vertex -3.8637 1.03528 12
    endloop
  endfacet
  facet normal 0.92388 -0.382683 0
    outer loop
      vertex -3.8637 1.03528 0
      vertex -3.4641 2 0
      vertex -3.8637 1.03528 12
    endloop
  endfacet
  facet normal 0.793353 -0.608762 0
    outer loop
      vertex -2.82843 2.82843 0
      vertex -2.82843 2.82843 12
      vertex -3.4641 2 12
    endloop
  endfacet
  facet normal 0.793353 -0.608762 0
    outer loop
      vertex -3.4641 2 0
      vertex -2.82843 2.82843 0
      vertex -3.4641 2 12
    endloop
  endfacet
  facet normal 0.608762 -0.793353 0
    outer loop
      vertex -2 3.4641 0
      vertex -2 3.4641 12
      vertex -2.82843 2.82843 12
    endloop
  endfacet
  facet normal 0.608762 -0.793353 0
    outer loop
      vertex -2.82843 2.82843 0
      vertex -2 3.4641 0
      vertex -2.82843 2.82843 12
    endloop
  endfacet
  facet normal 0.382683 -0.92388 0
    outer loop
      vertex -1.03528 3.8637 0
      vertex -1.03528 3.8637 12
      vertex -2 3.4641 12
    endloop
  endfacet
  facet normal 0.382683 -0.92388 0
    outer loop
      vertex -2 3.4641 0
      vertex -1.03528 3.8637 0
      vertex -2 3.4641 12
    endloop
  endfacet
  facet normal 0.130527 -0.991445 0
    outer loop
      vertex 0 4 0
      vertex 0 4 12
      vertex -1.03528 3.8637 12
    endloop
  endfacet
  facet normal 0.130527 -0.991445 0
    outer loop
      vertex -1.03528 3.8637 0
      vertex 0 4 0
      vertex -1.03528 3.8637 12
    endloop
  endfacet
  facet normal -0.130527 -0.991445 0
    outer loop
      vertex 1.03528 3.8637 0
      vertex 1.03528 3.8637 12
      vertex 0 4 12
    endloop
  endfacet
  facet normal -0.130527 -0.991445 0
    outer loop
      vertex 0 4 0
      vertex 1.03528 3.8637 0
      vertex 0 4 12
    endloop
  endfacet
  facet normal -0.382683 -0.92388 0
    outer loop
      vertex 2 3.4641 0
      vertex 2 3.4641 12
      vertex 1.03528 3.8637 12
    endloop
  endfacet
  facet normal -0.382683 -0.92388 0
    outer loop
      vertex 1.03528 3.8637 0
      vertex 2 3.4641 0
      vertex 1.03528 3.8637 12
    endloop
  endfacet
  facet normal -0.608762 -0.793353 0
    outer loop
      vertex 2.82843 2.82843 0
      vertex 2.82843 2.82843 12
      vertex 2 3.4641 12
    endloop
  endfacet
  facet normal -0.608762 -0.793353 0
    outer loop
      vertex 2 3.4641 0
      vertex 2.82843 2.82843 0
      vertex 2 3.4641 12
    endloop
  endfacet
  facet normal -0.793353 -0.608762 0
    outer loop
      vertex 3.4641 2 12
      vertex 2.82843 2.82843 12
      vertex 3.4641 2 0
    endloop
  endfacet
  facet normal -0.793353 -0.608762 0
    outer loop
      vertex 3.4641 2 0
      vertex 2.82843 2.82843 12
      vertex 2.82843 2.82843 0
    endloop
  endfacet
  facet normal -0.92388 -0.382683 0
    outer loop
      vertex 3.8637 1.03528 12
      vertex 3.4641 2 12
      vertex 3.8637 1.03528 0
    endloop
  endfacet
  facet normal -0.92388 -0.382683 0
    outer loop
      vertex 3.8637 1.03528 0
      vertex 3.4641 2 12
      vertex 3.4641 2 0
    endloop
  endfacet
  facet normal -0.991445 -0.130527 0
    outer loop
      vertex 4 0 12
      vertex 3.8637 1.03528 12
      vertex 4 0 0
    endloop
  endfacet
  facet normal -0.991445 -0.130527 0
    outer loop
      vertex 4 0 0
      vertex 3.8637 1.03528 12
      vertex 3.8637 1.03528 0
    endloop
  endfacet
  facet normal -0.991445 0.130527 0
    outer loop
      vertex 4 0 12
      vertex 4 0 0
      vertex 3.8637 -1.03528 12
    endloop
  endfacet
  facet normal -0.991445 0.130527 0
    outer loop
      vertex 3.8637 -1.03528 12
      vertex 4 0 0
      vertex 3.8637 -1.03528 0
    endloop
  endfacet
  facet normal -0.92388 0.382683 0
    outer loop
      vertex 3.8637 -1.03528 12
      vertex 3.8637 -1.03528 0
      vertex 3.4641 -2 12
    endloop
  endfacet
  facet normal -0.92388 0.382683 0
    outer loop
      vertex 3.4641 -2 12
      vertex 3.8637 -1.03528 0
      vertex 3.4641 -2 0
    endloop
  endfacet
  facet normal -0.793353 0.608762 0
    outer loop
      vertex 3.4641 -2 12
      vertex 3.4641 -2 0
      vertex 2.82843 -2.82843 12
    endloop
  endfacet
  facet normal -0.793353 0.608762 0
    outer loop
      vertex 2.82843 -2.82843 12
      vertex 3.4641 -2 0
      vertex 2.82843 -2.82843 0
    endloop
  endfacet
  facet normal -0.608762 0.793353 0
    outer loop
      vertex 2.82843 -2.82843 12
      vertex 2.82843 -2.82843 0
      vertex 2 -3.4641 12
    endloop
  endfacet
  facet normal -0.608762 0.793353 0
    outer loop
      vertex 2 -3.4641 12
      vertex 2.82843 -2.82843 0
      vertex 2 -3.4641 0
    endloop
  endfacet
  facet normal -0.382683 0.92388 0
    outer loop
      vertex 2 -3.4641 12
      vertex 2 -3.4641 0
      vertex 1.03528 -3.8637 12
    endloop
  endfacet
  facet normal -0.382683 0.92388 0
    outer loop
      vertex 1.03528 -3.8637 12
      vertex 2 -3.4641 0
      vertex 1.03528 -3.8637 0
    endloop
  endfacet
  facet normal -0.130527 0.991445 0
    outer loop
      vertex 1.03528 -3.8637 12
      vertex 1.03528 -3.8637 0
      vertex 0 -4 12
    endloop
  endfacet
  facet normal -0.130527 0.991445 0
    outer loop
      vertex 0 -4 12
      vertex 1.03528 -3.8637 0
      vertex 0 -4 0
    endloop
  endfacet
  facet normal 0.130527 0.991445 0
    outer loop
      vertex 0 -4 12
      vertex 0 -4 0
      vertex -1.03528 -3.8637 12
    endloop
  endfacet
  facet normal 0.130527 0.991445 0
    outer loop
      vertex -1.03528 -3.8637 12
      vertex 0 -4 0
      vertex -1.03528 -3.8637 0
    endloop
  endfacet
  facet normal 0.382683 0.92388 0
    outer loop
      vertex -1.03528 -3.8637 12
      vertex -1.03528 -3.8637 0
      vertex -2 -3.4641 12
    endloop
  endfacet
  facet normal 0.382683 0.92388 0
    outer loop
      vertex -2 -3.4641 12
      vertex -1.03528 -3.8637 0
      vertex -2 -3.4641 0
    endloop
  endfacet
  facet normal 0.608762 0.793353 0
    outer loop
      vertex -2 -3.4641 12
      vertex -2 -3.4641 0
      vertex -2.82843 -2.82843 12
    endloop
  endfacet
  facet normal 0.608762 0.793353 0
    outer loop
      vertex -2.82843 -2.82843 12
      vertex -2 -3.4641 0
      vertex -2.82843 -2.82843 0
    endloop
  endfacet
  facet normal 0.793353 0.608762 0
    outer loop
      vertex -3.4641 -2 12
      vertex -2.82843 -2.82843 12
      vertex -2.82843 -2.82843 0
    endloop
  endfacet
  facet normal 0.793353 0.608762 0
    outer loop
      vertex -3.4641 -2 0
      vertex -3.4641 -2 12
      vertex -2.82843 -2.82843 0
    endloop
  endfacet
  facet normal 0.92388 0.382683 0
    outer loop
      vertex -3.8637 -1.03528 12
      vertex -3.4641 -2 12
      vertex -3.4641 -2 0
    endloop
  endfacet
  facet normal 0.92388 0.382683 0
    outer loop
      vertex -3.8637 -1.03528 0
      vertex -3.8637 -1.03528 12
      vertex -3.4641 -2 0
    endloop
  endfacet
  facet normal 0 0 1
    outer loop
      vertex -5.79555 1.55291 12
      vertex -6 0 12
      vertex -5.79555 -1.55291 12
    endloop
  endfacet
  facet normal 0 0 1
    outer loop
      vertex -4.24264 -4.24264 12
      vertex -5.79555 1.55291 12
      vertex -5.19615 -3 12
    endloop
  endfacet
  facet normal 0 0 1
    outer loop
      vertex -5.19615 -3 12
      vertex -5.79555 1.55291 12
      vertex -5.79555 -1.55291 12
    endloop
  endfacet
  facet normal 0 0 1
    outer loop
      vertex -3 -5.19615 12
      vertex -5.79555 1.55291 12
      vertex -4.24264 -4.24264 12
    endloop
  endfacet
  facet normal 0 0 1
    outer loop
      vertex -1.55291 -5.79555 12
      vertex -5.79555 1.55291 12
      vertex -3 -5.19615 12
    endloop
  endfacet
  facet normal 0 0 1
    outer loop
      vertex -3.4641 -2 12
      vertex -5.79555 1.55291 12
      vertex -1.55291 -5.79555 12
    endloop
  endfacet
  facet normal 0 0 1
    outer loop
      vertex 2.82843 -2.82843 12
      vertex 2 -3.4641 12
      vertex 4.24264 -4.24264 12
    endloop
  endfacet
  facet normal 0 0 1
    outer loop
      vertex -3.8637 1.03528 12
      vertex -3.4641 2 12
      vertex -5.79555 1.55291 12
    endloop
  endfacet
  facet normal 0 0 1
    outer loop
      vertex 2 -3.4641 12
      vertex 1.03528 -3.8637 12
      vertex 3 -5.19615 12
    endloop
  endfacet
  facet normal 0 0 1
    outer loop
      vertex 2.82843 2.82843 12
      vertex 3.4641 2 12
      vertex 5.19615 3 12
    endloop
  endfacet
  facet normal 0 0 1
    outer loop
      vertex 1.03528 3.8637 12
      vertex 2 3.4641 12
      vertex 4.24264 4.24264 12
    endloop
  endfacet
  facet normal 0 0 1
    outer loop
      vertex 0 6 12
      vertex -5.79555 1.55291 12
      vertex 1.55291 5.79555 12
    endloop
  endfacet
  facet normal 0 0 1
    outer loop
      vertex -1.55291 5.79555 12
      vertex -5.79555 1.55291 12
      vertex 0 6 12
    endloop
  endfacet
  facet normal 0 0 1
    outer loop
      vertex -3 5.19615 12
      vertex -5.79555 1.55291 12
      vertex -1.55291 5.79555 12
    endloop
  endfacet
  facet normal 0 0 1
    outer loop
      vertex -4.24264 4.24264 12
      vertex -5.79555 1.55291 12
      vertex -3 5.19615 12
    endloop
  endfacet
  facet normal 0 0 1
    outer loop
      vertex -5.19615 3 12
      vertex -5.79555 1.55291 12
      vertex -4.24264 4.24264 12
    endloop
  endfacet
  facet normal 0 0 1
    outer loop
      vertex 3.4641 -2 12
      vertex 2.82843 -2.82843 12
      vertex 5.19615 -3 12
    endloop
  endfacet
  facet normal 0 0 1
    outer loop
      vertex 3.4641 2 12
      vertex 3.8637 1.03528 12
      vertex 5.79555 1.55291 12
    endloop
  endfacet
  facet normal 0 0 1
    outer loop
      vertex -2 3.4641 12
      vertex -5.79555 1.55291 12
      vertex -2.82843 2.82843 12
    endloop
  endfacet
  facet normal 0 0 1
    outer loop
      vertex 0 4 12
      vertex 1.03528 3.8637 12
      vertex 3 5.19615 12
    endloop
  endfacet
  facet normal 0 0 1
    outer loop
      vertex 1.55291 5.79555 12
      vertex -5.79555 1.55291 12
      vertex -2 3.4641 12
    endloop
  endfacet
  facet normal 0 0 1
    outer loop
      vertex 1.55291 5.79555 12
      vertex -1.03528 3.8637 12
      vertex 3 5.19615 12
    endloop
  endfacet
  facet normal 0 0 1
    outer loop
      vertex -1.03528 3.8637 12
      vertex 0 4 12
      vertex 3 5.19615 12
    endloop
  endfacet
  facet normal 0 0 1
    outer loop
      vertex 3 5.19615 12
      vertex 1.03528 3.8637 12
      vertex 4.24264 4.24264 12
    endloop
  endfacet
  facet normal 0 0 1
    outer loop
      vertex -2 3.4641 12
      vertex -1.03528 3.8637 12
      vertex 1.55291 5.79555 12
    endloop
  endfacet
  facet normal 0 0 1
    outer loop
      vertex 4.24264 4.24264 12
      vertex 2 3.4641 12
      vertex 5.19615 3 12
    endloop
  endfacet
  facet normal 0 0 1
    outer loop
      vertex 2 3.4641 12
      vertex 2.82843 2.82843 12
      vertex 5.19615 3 12
    endloop
  endfacet
  facet normal 0 0 1
    outer loop
      vertex 5.19615 3 12
      vertex 3.4641 2 12
      vertex 5.79555 1.55291 12
    endloop
  endfacet
  facet normal 0 0 1
    outer loop
      vertex 3.8637 1.03528 12
      vertex 4 0 12
      vertex 6 0 12
    endloop
  endfacet
  facet normal 0 0 1
    outer loop
      vertex 5.79555 1.55291 12
      vertex 3.8637 1.03528 12
      vertex 6 0 12
    endloop
  endfacet
  facet normal 0 0 1
    outer loop
      vertex -3.4641 2 12
      vertex -2.82843 2.82843 12
      vertex -5.79555 1.55291 12
    endloop
  endfacet
  facet normal 0 0 1
    outer loop
      vertex 6 0 12
      vertex 4 0 12
      vertex 5.79555 -1.55291 12
    endloop
  endfacet
  facet normal 0 0 1
    outer loop
      vertex 5.79555 -1.55291 12
      vertex 3.8637 -1.03528 12
      vertex 5.19615 -3 12
    endloop
  endfacet
  facet normal 0 0 1
    outer loop
      vertex 3.8637 -1.03528 12
      vertex 3.4641 -2 12
      vertex 5.19615 -3 12
    endloop
  endfacet
  facet normal 0 0 1
    outer loop
      vertex 5.19615 -3 12
      vertex 2.82843 -2.82843 12
      vertex 4.24264 -4.24264 12
    endloop
  endfacet
  facet normal 0 0 1
    outer loop
      vertex 4 0 12
      vertex 3.8637 -1.03528 12
      vertex 5.79555 -1.55291 12
    endloop
  endfacet
  facet normal 0 0 1
    outer loop
      vertex 4.24264 -4.24264 12
      vertex 2 -3.4641 12
      vertex 3 -5.19615 12
    endloop
  endfacet
  facet normal 0 0 1
    outer loop
      vertex 3 -5.19615 12
      vertex 1.03528 -3.8637 12
      vertex 1.55291 -5.79555 12
    endloop
  endfacet
  facet normal 0 0 1
    outer loop
      vertex 1.03528 -3.8637 12
      vertex 0 -4 12
      vertex 1.55291 -5.79555 12
    endloop
  endfacet
  facet normal 0 0 1
    outer loop
      vertex 1.55291 -5.79555 12
      vertex -1.03528 -3.8637 12
      vertex 0 -6 12
    endloop
  endfacet
  facet normal 0 0 1
    outer loop
      vertex 0 -6 12
      vertex -2 -3.4641 12
      vertex -1.55291 -5.79555 12
    endloop
  endfacet
  facet normal 0 0 1
    outer loop
      vertex -2 -3.4641 12
      vertex -2.82843 -2.82843 12
      vertex -1.55291 -5.79555 12
    endloop
  endfacet
  facet normal 0 0 1
    outer loop
      vertex -3.8637 -1.03528 12
      vertex -5.79555 1.55291 12
      vertex -3.4641 -2 12
    endloop
  endfacet
  facet normal 0 0 1
    outer loop
      vertex -2.82843 -2.82843 12
      vertex -3.4641 -2 12
      vertex -1.55291 -5.79555 12
    endloop
  endfacet
  facet normal 0 0 1
    outer loop
      vertex -3.8637 -1.03528 12
      vertex -4 0 12
      vertex -5.79555 1.55291 12
    endloop
  endfacet
  facet normal 0 0 1
    outer loop
      vertex -1.03528 -3.8637 12
      vertex -2 -3.4641 12
      vertex 0 -6 12
    endloop
  endfacet
  facet normal 0 0 1
    outer loop
      vertex 0 -4 12
      vertex -1.03528 -3.8637 12
      vertex 1.55291 -5.79555 12
    endloop
  endfacet
  facet normal 0 0 1
    outer loop
      vertex -4 0 12
      vertex -3.8637 1.03528 12
      vertex -5.79555 1.55291 12
    endloop
  endfacet
endsolid OpenSCAD_Model
